<?xml version="1.0" standalone="no"?>
<!DOCTYPE svg PUBLIC "-//W3C//DTD SVG 20010904//EN"
 "http://www.w3.org/TR/2001/REC-SVG-20010904/DTD/svg10.dtd">
<svg version="1.0" xmlns="http://www.w3.org/2000/svg"
 width="550.000000pt" height="550.000000pt" viewBox="0 0 550.000000 550.000000"
 preserveAspectRatio="xMidYMid meet">
<metadata>
Created by potrace 1.11, written by Peter Selinger 2001-2013
</metadata>
<g transform="translate(0.000000,550.000000) scale(0.100000,-0.100000)"
fill="#000000" stroke="none">
<path d="M3730 4080 c-102 -26 -482 -123 -845 -215 -363 -92 -666 -172 -672
-177 -10 -8 -13 -176 -13 -778 l0 -767 -72 -6 c-154 -11 -344 -79 -494 -175
-94 -60 -206 -172 -234 -234 -26 -58 -26 -142 0 -185 76 -126 343 -149 621
-54 227 76 402 203 476 342 l28 54 3 665 3 665 457 110 c385 93 457 113 460
129 2 10 0 22 -6 28 -6 6 -171 -30 -448 -97 -241 -58 -445 -108 -451 -110 -10
-3 -13 17 -13 79 l0 84 545 136 c300 75 547 136 550 136 3 0 5 -254 5 -565 0
-313 -4 -565 -9 -565 -36 0 -199 -36 -279 -61 -322 -102 -562 -304 -562 -473
0 -46 36 -111 78 -139 67 -46 141 -60 281 -54 182 8 361 63 535 165 93 54 222
176 257 242 l24 45 3 897 c2 809 1 898 -14 912 -8 9 -18 16 -22 15 -4 0 -90
-22 -192 -49z"/>
</g>
</svg>
